<?xml version="1.0" standalone="no"?>
<!DOCTYPE svg PUBLIC "-//W3C//DTD SVG 20010904//EN"
 "http://www.w3.org/TR/2001/REC-SVG-20010904/DTD/svg10.dtd">
<svg version="1.0" xmlns="http://www.w3.org/2000/svg"
 width="1040.000000pt" height="501.000000pt" viewBox="0 0 1040.000000 501.000000"
 preserveAspectRatio="xMidYMid meet">
<metadata>
Created by potrace 1.16, written by Peter Selinger 2001-2019
</metadata>
<g transform="translate(0.000000,501.000000) scale(0.100000,-0.100000)"
fill="#000000" stroke="none">
<path d="M1540 4989 c-269 -19 -411 -54 -592 -145 -194 -98 -325 -192 -469
-340 -232 -239 -378 -512 -451 -844 l-23 -105 0 -1050 0 -1050 23 -105 c130
-589 523 -1044 1082 -1253 127 -47 263 -74 442 -87 97 -6 1363 -10 3735 -10
3897 0 3639 -3 3865 54 181 46 409 156 568 274 41 30 119 98 173 151 244 237
403 527 479 871 l23 105 0 1050 0 1050 -23 105 c-73 332 -219 605 -451 844
-239 245 -540 410 -868 476 -101 20 -116 20 -3755 19 -2009 -1 -3700 -5 -3758
-10z m1217 -1203 c120 -57 243 -178 228 -224 -3 -11 -1 -23 5 -27 6 -4 7 -12
1 -24 -5 -9 -7 -36 -4 -59 4 -26 1 -47 -7 -57 -7 -8 -10 -22 -6 -30 3 -8 1
-15 -4 -15 -5 0 -9 -21 -9 -47 2 -90 -65 -206 -156 -272 -72 -53 -122 -66
-245 -65 -94 1 -111 4 -165 30 -112 53 -203 173 -234 307 -19 78 -15 186 7
245 47 124 103 186 211 234 86 39 131 48 226 43 64 -4 93 -11 152 -39z m-1672
-53 c15 -61 70 -118 133 -135 23 -7 42 -16 42 -20 0 -4 -21 -16 -47 -28 -65
-29 -91 -55 -123 -125 -27 -60 -28 -60 -35 -30 -4 17 -21 51 -37 77 -28 44
-39 52 -138 95 -24 10 -24 11 -5 18 106 36 151 79 179 168 8 24 22 14 31 -20z
m602 -701 c16 -10 41 -22 58 -26 l30 -8 -50 -23 c-51 -25 -79 -52 -96 -94 -9
-23 -10 -23 -39 23 -27 42 -54 61 -115 81 -17 5 -10 11 35 34 45 22 59 35 79
75 l24 49 23 -46 c13 -25 36 -54 51 -65z m5817 -48 c14 -13 16 -66 16 -424 l0
-409 88 -3 87 -3 -1 -67 c-1 -104 -7 -108 -172 -108 -117 0 -137 2 -148 18
-11 13 -13 111 -14 483 0 453 1 467 20 492 12 16 33 27 53 30 17 2 37 5 44 5
6 1 19 -5 27 -14z m-274 -31 c86 -53 110 -123 110 -323 0 -211 -25 -276 -124
-325 -47 -23 -60 -25 -203 -25 l-153 0 0 -135 c0 -131 -1 -137 -25 -160 -15
-16 -36 -25 -55 -25 -19 0 -40 9 -55 25 l-25 24 0 459 c0 351 3 462 13 475 22
31 68 36 277 34 191 -2 207 -3 240 -24z m-2917 -25 c16 -19 17 -56 17 -473 0
-447 0 -452 -21 -471 -25 -23 -108 -25 -134 -4 -9 7 -49 68 -89 134 -184 306
-228 376 -236 376 -4 0 -9 -109 -9 -242 l-1 -243 -26 -22 c-34 -30 -78 -30
-109 2 l-25 24 0 439 c0 413 1 441 18 463 21 26 71 30 97 9 9 -7 96 -147 193
-309 l177 -296 5 296 c5 314 6 320 55 339 28 11 67 2 88 -22z m578 -160 c43
-28 88 -80 95 -111 10 -49 -21 -81 -85 -85 -44 -3 -57 1 -82 22 -27 23 -39 26
-114 26 -74 0 -87 -3 -105 -22 -25 -27 -33 -54 -28 -99 l3 -34 187 -3 187 -2
20 -27 c30 -37 27 -79 -8 -114 l-29 -29 -181 0 -181 0 0 -49 c0 -34 6 -56 21
-75 20 -25 25 -26 115 -26 66 0 104 5 125 15 59 31 129 20 148 -22 18 -40 -20
-109 -78 -140 -40 -21 -57 -23 -185 -23 -127 0 -146 2 -186 23 -26 13 -57 40
-75 65 -27 39 -30 53 -34 135 -2 74 -7 98 -24 122 -28 39 -28 92 1 132 18 25
22 45 22 105 0 88 25 146 83 192 47 37 91 45 243 42 90 -1 127 -6 145 -18z
m4449 -12 c45 -29 80 -79 80 -112 0 -12 -9 -33 -21 -48 -29 -36 -98 -37 -141
-1 -26 22 -38 25 -114 25 -77 0 -87 -2 -110 -25 -21 -22 -25 -33 -22 -78 l3
-52 192 -5 c177 -5 193 -7 207 -25 28 -36 16 -102 -23 -132 -11 -9 -71 -12
-198 -13 l-183 0 0 -49 c0 -38 6 -57 23 -77 22 -25 28 -26 113 -27 70 -1 97 3
117 16 38 24 119 23 142 -3 39 -43 -7 -134 -84 -166 -23 -10 -75 -14 -173 -14
-117 0 -145 3 -176 19 -81 41 -112 103 -112 218 0 61 -4 85 -20 108 -11 17
-20 46 -20 65 0 19 9 49 20 65 15 23 20 47 20 105 0 88 20 138 74 190 44 42
86 50 248 46 108 -3 121 -5 158 -30z m-4069 -81 c35 -58 66 -105 70 -105 4 0
37 47 74 105 l67 105 78 0 c119 0 119 1 -36 -242 -52 -80 -94 -152 -94 -160 0
-7 41 -78 91 -158 115 -183 122 -197 115 -226 -6 -23 -10 -24 -84 -24 l-77 0
-65 110 c-36 60 -67 110 -70 110 -3 0 -17 -18 -30 -39 -14 -22 -45 -72 -70
-111 l-45 -71 -75 3 c-73 3 -75 4 -78 30 -4 34 0 41 114 215 52 78 94 150 94
159 0 9 -44 89 -99 178 -101 166 -117 198 -106 216 3 5 41 10 84 10 l79 0 63
-105z m948 79 c29 -37 27 -89 -4 -119 -22 -22 -32 -25 -105 -25 l-80 0 0 -304
0 -305 -26 -20 c-33 -26 -75 -27 -105 -2 l-24 19 -5 309 -5 308 -77 0 c-99 0
-113 12 -109 96 0 14 10 35 21 47 20 21 27 22 260 22 l239 0 20 -26z m1909 -1
c6 -16 40 -129 77 -253 37 -124 85 -283 106 -354 22 -71 39 -139 39 -152 0
-23 -3 -24 -74 -24 l-75 0 -20 55 c-12 31 -21 60 -21 65 0 6 -50 10 -120 10
-106 0 -121 -2 -126 -17 -3 -10 -13 -38 -22 -63 l-18 -45 -76 -3 c-55 -2 -77
1 -80 10 -5 11 17 89 107 378 71 230 106 340 121 378 l16 42 78 0 c75 0 78 -1
88 -27z m280 -55 c21 -46 54 -116 72 -155 18 -40 36 -73 40 -73 4 0 33 60 65
133 84 190 73 178 164 175 63 -3 76 -6 79 -21 2 -9 -49 -131 -112 -270 l-116
-252 0 -142 0 -143 -80 0 -80 0 0 138 0 137 -74 165 c-40 91 -92 205 -115 253
-40 86 -48 117 -34 130 3 4 39 7 79 7 l73 0 39 -82z m1519 53 c48 -35 86 -83
102 -130 14 -44 14 -143 -1 -192 -14 -50 -72 -118 -115 -135 -18 -8 -33 -17
-33 -21 0 -3 16 -55 35 -114 46 -142 45 -172 -3 -190 -38 -15 -86 -1 -104 29
-22 38 -118 329 -118 358 0 41 42 74 94 74 37 0 48 5 70 31 36 43 35 91 -3
130 -26 25 -37 29 -88 29 -32 0 -68 -3 -80 -6 l-23 -6 0 -298 c0 -277 -1 -299
-19 -321 -14 -18 -29 -24 -61 -24 -32 0 -47 6 -61 24 -18 22 -19 45 -19 389 0
326 2 367 17 384 14 16 34 18 193 18 l177 0 40 -29z m-6842 -190 c26 -19 71
-41 101 -50 61 -18 70 -33 26 -42 -53 -11 -120 -49 -157 -90 -35 -39 -49 -64
-78 -144 -9 -24 -17 -34 -20 -25 -23 77 -44 131 -64 161 -26 39 -93 81 -160
98 -24 7 -43 16 -43 20 0 5 32 19 71 31 106 32 152 84 195 220 3 8 22 -21 44
-66 30 -63 49 -87 85 -113z m-1735 -19 c0 -5 13 -7 29 -4 82 12 315 -144 584
-390 130 -118 246 -212 347 -279 87 -58 299 -157 385 -181 75 -20 112 -35 133
-55 16 -15 58 -17 67 -3 3 6 -3 10 -14 10 -11 0 -22 4 -25 9 -3 5 20 8 52 7
31 0 83 3 115 8 57 8 57 8 57 -17 0 -19 -6 -26 -22 -29 -15 -2 -23 -10 -24
-24 -2 -30 -12 -44 -32 -43 -14 0 -14 2 -2 6 19 7 30 24 24 35 -9 14 -29 9
-51 -11 -17 -16 -42 -21 -139 -26 -221 -13 -325 17 -714 208 -328 161 -474
256 -583 377 -85 95 -164 159 -187 153 -20 -5 -60 20 -60 39 0 5 10 12 22 17
21 7 19 10 -22 28 -55 24 -78 48 -55 57 17 6 20 37 5 52 -20 20 0 44 31 37 19
-3 29 -1 29 6 0 7 4 10 9 6 5 -3 12 -1 16 5 7 12 25 13 25 2z m5257 -118 c22
-22 25 -32 20 -67 -10 -70 -27 -77 -190 -77 -131 0 -142 2 -164 22 -33 31 -32
91 3 123 26 24 32 25 166 25 136 0 139 -1 165 -26z m-6050 -39 c25 -18 34 -57
21 -101 -10 -38 -33 -54 -77 -54 -43 0 -60 9 -76 41 -22 41 -18 77 10 104 28
29 88 34 122 10z m520 -7 c30 -28 32 -89 3 -118 -49 -49 -140 -10 -140 59 0
72 84 109 137 59z m318 -233 c18 -17 25 -35 25 -62 0 -32 -6 -42 -35 -62 -62
-42 -125 -5 -125 74 0 38 4 46 28 59 41 23 79 19 107 -9z m204 -257 c30 -75
74 -116 162 -153 40 -16 72 -34 71 -40 0 -5 -23 -14 -50 -20 -27 -6 -66 -20
-88 -31 -47 -25 -100 -98 -109 -154 -7 -42 -22 -61 -30 -38 -54 155 -81 187
-185 219 -39 11 -70 24 -70 29 0 4 28 17 61 30 91 33 141 84 169 171 26 81 33
80 69 -13z m-660 -151 c29 -68 66 -104 132 -128 60 -22 73 -35 42 -45 -88 -28
-149 -80 -174 -148 -16 -45 -24 -45 -39 -2 -17 53 -75 112 -128 132 -26 9 -51
21 -56 25 -5 5 20 22 57 38 68 31 103 68 128 139 6 17 13 32 15 32 3 0 13 -19
23 -43z"/>
<path d="M6864 2797 c-2 -7 -3 -87 -2 -177 l3 -165 115 -3 c131 -3 147 -1 178
28 20 19 22 30 22 141 0 131 -12 172 -52 183 -13 3 -76 6 -141 6 -87 0 -119
-3 -123 -13z"/>
<path d="M8017 2463 c-9 -32 -21 -80 -27 -108 -6 -27 -13 -57 -16 -67 -4 -13
5 -17 45 -23 93 -13 93 -13 56 125 -18 66 -34 123 -37 125 -3 3 -12 -20 -21
-52z"/>
</g>
</svg>
